<svg xmlns="http://www.w3.org/2000/svg" xmlns:xlink="http://www.w3.org/1999/xlink" viewBox="0 0 115.61 193.64"><defs><style>.cls-1{fill:url(#linear-gradient);}.cls-2{fill:url(#linear-gradient-2);}.cls-3{fill:url(#linear-gradient-3);}.cls-4{fill:url(#linear-gradient-4);}.cls-5{fill:url(#linear-gradient-5);}.cls-6{fill:url(#linear-gradient-6);}.cls-7{fill:url(#linear-gradient-7);}.cls-8{fill:url(#linear-gradient-8);}.cls-9{fill:url(#linear-gradient-9);}.cls-10{fill:url(#linear-gradient-10);}.cls-11{fill:url(#linear-gradient-11);}.cls-12{fill:url(#linear-gradient-12);}.cls-13{fill:url(#linear-gradient-13);}.cls-14{fill:url(#linear-gradient-14);}.cls-15{fill:url(#linear-gradient-15);}.cls-16{fill:#fff;}</style><linearGradient id="linear-gradient" x1="40.09" y1="141.99" x2="68.57" y2="141.99" gradientUnits="userSpaceOnUse"><stop offset="0" stop-color="#54a0ff"/><stop offset="1" stop-color="#68beff"/></linearGradient><linearGradient id="linear-gradient-2" x1="13.82" y1="128.73" x2="42.29" y2="128.73" xlink:href="#linear-gradient"/><linearGradient id="linear-gradient-3" x1="70" y1="125.39" x2="110.43" y2="125.39" xlink:href="#linear-gradient"/><linearGradient id="linear-gradient-4" x1="19.8" y1="114.98" x2="51.08" y2="114.98" xlink:href="#linear-gradient"/><linearGradient id="linear-gradient-5" x1="52.45" y1="129.35" x2="98.24" y2="129.35" xlink:href="#linear-gradient"/><linearGradient id="linear-gradient-6" x1="65.16" y1="107.63" x2="34.01" y2="54.52" xlink:href="#linear-gradient"/><linearGradient id="linear-gradient-7" x1="0.56" y1="1.01" x2="11.11" y2="74.88" xlink:href="#linear-gradient"/><linearGradient id="linear-gradient-8" x1="14.32" y1="-0.95" x2="24.87" y2="72.92" xlink:href="#linear-gradient"/><linearGradient id="linear-gradient-9" x1="29.19" y1="-3.08" x2="39.74" y2="70.79" xlink:href="#linear-gradient"/><linearGradient id="linear-gradient-10" x1="37.78" y1="-4.31" x2="48.34" y2="69.57" xlink:href="#linear-gradient"/><linearGradient id="linear-gradient-11" x1="51.89" y1="-6.32" x2="62.44" y2="67.55" xlink:href="#linear-gradient"/><linearGradient id="linear-gradient-12" x1="68.97" y1="-8.76" x2="79.52" y2="65.11" xlink:href="#linear-gradient"/><linearGradient id="linear-gradient-13" x1="79.07" y1="-10.2" x2="89.62" y2="63.67" xlink:href="#linear-gradient"/><linearGradient id="linear-gradient-14" x1="89.05" y1="-11.63" x2="99.61" y2="62.24" xlink:href="#linear-gradient"/><linearGradient id="linear-gradient-15" x1="103.75" y1="-13.73" x2="114.3" y2="60.14" xlink:href="#linear-gradient"/></defs><title>Asset 1</title><g id="Layer_2" data-name="Layer 2"><g id="Layer_1-2" data-name="Layer 1"><path class="cls-1" d="M52.2,91.87c-.85,3.9-.58,8.63,1.16,11.6a14.51,14.51,0,0,0,4.21,4.31,25.92,25.92,0,0,1,6.16,6,16.78,16.78,0,0,1,2,4.14,22.61,22.61,0,0,1,1,4.23,30.67,30.67,0,0,1,0,8.29,25.5,25.5,0,0,1-2.39,8,17.83,17.83,0,0,1-5.61,6.46c-2.25,1.62-4.6,2.68-6.39,4a15.43,15.43,0,0,0-4.48,4.93A14.67,14.67,0,0,0,46,160.27a9.44,9.44,0,0,0,.08,1.61,5.36,5.36,0,0,0,.16.74,4.36,4.36,0,0,0,.18.47,1.89,1.89,0,0,0,.43.41,5.77,5.77,0,0,1,.93.82,1.35,1.35,0,0,1,.17.25,1.54,1.54,0,0,1,.16.36,1.5,1.5,0,0,1,0,1l-.19.47-.14.33a1.91,1.91,0,0,0-.06.33,4,4,0,0,0,.69,2.84,32.77,32.77,0,0,0,2.1,3,19.85,19.85,0,0,1,2.05,3.32,10.42,10.42,0,0,1,.66,1.9,12.69,12.69,0,0,1,.23,2,8.67,8.67,0,0,1-.66,3.89,12,12,0,0,1-2.2,3.16,12.92,12.92,0,0,0-2.2,3,6.93,6.93,0,0,0-.83,3.58c-.34-2.54,1-5,2.6-6.91A11.29,11.29,0,0,0,52,183.61a7.32,7.32,0,0,0,.32-3.48c-.14-2.43-1.53-4.37-3.14-6.23-.79-.94-1.66-1.86-2.44-3a8.3,8.3,0,0,1-1-1.9,4.58,4.58,0,0,1-.27-1.12l-.05-.6c0-.2,0-.4.05-.6a4,4,0,0,1,.08-.59l.18-.56.09-.27,0-.14,0-.07s0,.05,0,.07a.85.85,0,0,0,0,.5.74.74,0,0,0,.09.21l-.53-.35a4.34,4.34,0,0,1-1-.82,4.26,4.26,0,0,1-.65-1.2,7.42,7.42,0,0,1-.33-1.08,12,12,0,0,1-.27-2.11,17.63,17.63,0,0,1,1.66-8,19,19,0,0,1,5.06-6.49c2.17-1.79,4.35-3,6.06-4.43a12.9,12.9,0,0,0,3.78-5.05,20.11,20.11,0,0,0,1.37-6.44,24.23,24.23,0,0,0-.47-6.66,16.37,16.37,0,0,0-.93-3,10.06,10.06,0,0,0-1.46-2.46,19.51,19.51,0,0,0-4.93-4,33.74,33.74,0,0,1-3.38-2.47,17.63,17.63,0,0,1-3.19-3.51,18.09,18.09,0,0,1-2.17-4.24,24.24,24.24,0,0,1-1.13-4.37,29.22,29.22,0,0,1-.12-8.81Z"/><path class="cls-2" d="M42.09,97.61a13.34,13.34,0,0,1-1.31,7.89,12.94,12.94,0,0,1-2.35,3.26,14.6,14.6,0,0,1-3,2.27,27.93,27.93,0,0,1-5.82,2.31,30.17,30.17,0,0,0-4.56,1.6,8.06,8.06,0,0,0-1.64,1,5.24,5.24,0,0,0-1.16,1.3,7,7,0,0,0-1.09,3.63,6.19,6.19,0,0,0,1,3.6,9.74,9.74,0,0,0,3.33,2.82c1.44.82,3.09,1.54,4.8,2.42a17.52,17.52,0,0,1,4.89,3.59,8.57,8.57,0,0,1,2.48,6,5,5,0,0,1-1.3,3.39l-.19.18a1.85,1.85,0,0,1-.29.22,4,4,0,0,1-.48.26c-.29.12-.54.19-.76.26l-.48.15h0a.25.25,0,0,0,.08-.07,1,1,0,0,0,.18-.24,1,1,0,0,0,.11-.61.78.78,0,0,0-.07-.25l-.06-.12,0,0,.06.11.12.22a2.58,2.58,0,0,1,.06,2.24,4,4,0,0,1-1.15,1.39A17.11,17.11,0,0,1,31,147.92c-.8.45-1.57.88-2.28,1.37A4.91,4.91,0,0,0,27.07,151a5,5,0,0,0-.36,1.15,2.26,2.26,0,0,0,.11,1.12,5.35,5.35,0,0,0,1.54,2,11.56,11.56,0,0,1,1.93,2,2.94,2.94,0,0,1,.59,2.61,2.81,2.81,0,0,0-.81-2.44A11.52,11.52,0,0,0,28,155.7a6,6,0,0,1-2-2.1,3.17,3.17,0,0,1-.31-1.55,5.81,5.81,0,0,1,.3-1.48,6.16,6.16,0,0,1,1.84-2.39c.73-.63,1.49-1.16,2.24-1.69a16.3,16.3,0,0,0,2-1.58,2,2,0,0,0,.52-.73c0-.18,0-.18-.11-.38l0-.07,0,0-.06-.09-.07-.15a1.54,1.54,0,0,1-.1-.33,1.38,1.38,0,0,1,.14-.77,1.47,1.47,0,0,1,.29-.38l.21-.17.16-.09a7.5,7.5,0,0,1,.78-.36l.51-.24a.43.43,0,0,0,.11-.08l0,0,.05-.07a2.45,2.45,0,0,0,.37-1.66,5.55,5.55,0,0,0-2-3.62,14.28,14.28,0,0,0-4.15-2.4c-1.6-.63-3.35-1.18-5.17-2a14.47,14.47,0,0,1-5.28-3.7,11.47,11.47,0,0,1-2.65-6.48,12.32,12.32,0,0,1,.17-3.48,12.19,12.19,0,0,1,1.11-3.38,11.43,11.43,0,0,1,2.12-3,14.36,14.36,0,0,1,2.75-2.2,35.24,35.24,0,0,1,5.45-2.63,20.22,20.22,0,0,0,4.11-2.11,6.45,6.45,0,0,0,1.22-1.14,4.58,4.58,0,0,0,.66-1.26,4.43,4.43,0,0,0,.11-2.73Z"/><path class="cls-3" d="M85.23,95.54A13.17,13.17,0,0,1,88,103.06a12.88,12.88,0,0,1-.44,4A14.41,14.41,0,0,1,86,110.5a27.43,27.43,0,0,1-3.93,4.87A32.11,32.11,0,0,0,78.9,119,8.1,8.1,0,0,0,78,120.7a5,5,0,0,0-.37,1.7,7,7,0,0,0,.83,3.7,6.12,6.12,0,0,0,2.63,2.65,9.81,9.81,0,0,0,4.29.82c1.65,0,3.45-.18,5.36-.25a17.62,17.62,0,0,1,6,.72,8.67,8.67,0,0,1,5.1,4,5.08,5.08,0,0,1,.53,3.6l-.07.24c0,.11-.1.25-.15.34a2.62,2.62,0,0,1-.3.46,7,7,0,0,1-.52.6l-.35.37h0a.29.29,0,0,0,0-.1.88.88,0,0,0,0-.3,1,1,0,0,0-.21-.58.81.81,0,0,0-.18-.19.41.41,0,0,0-.11-.07l0,0,.11.06.21.14a2.57,2.57,0,0,1,1.16,1.92,4.11,4.11,0,0,1-.32,1.78,18.16,18.16,0,0,1-1.37,2.53c-.47.78-.93,1.54-1.3,2.31a4.89,4.89,0,0,0-.61,2.3,5.28,5.28,0,0,0,.25,1.18,2.39,2.39,0,0,0,.64.93,5.52,5.52,0,0,0,2.33,1,11.71,11.71,0,0,1,2.65.76,2.92,2.92,0,0,1,1.79,2,2.8,2.8,0,0,0-1.9-1.72,11.4,11.4,0,0,0-2.64-.47,5.91,5.91,0,0,1-2.74-.87,3.12,3.12,0,0,1-1-1.19,5.63,5.63,0,0,1-.46-1.44,6.12,6.12,0,0,1,.42-3A26.18,26.18,0,0,1,98.82,144a14.74,14.74,0,0,0,1-2.37,2,2,0,0,0,.1-.89c-.08-.17-.08-.17-.28-.28l-.08,0h0l-.09,0-.14-.1A1.9,1.9,0,0,1,99,140a1.34,1.34,0,0,1-.18-1.21,1.09,1.09,0,0,1,.1-.25l.08-.16a6.19,6.19,0,0,1,.51-.69l.33-.46a.45.45,0,0,0,0-.13s0,0,0,0v-.08a2.48,2.48,0,0,0-.5-1.63,5.56,5.56,0,0,0-3.56-2.15,14.23,14.23,0,0,0-4.79,0c-1.71.24-3.5.63-5.48.82a14.47,14.47,0,0,1-6.42-.62,11.5,11.5,0,0,1-5.48-4.34A12.19,12.19,0,0,1,72.11,126a12.65,12.65,0,0,1-.69-3.48,11.78,11.78,0,0,1,.36-3.67,14.44,14.44,0,0,1,1.32-3.26,36.17,36.17,0,0,1,3.45-5,20.42,20.42,0,0,0,2.56-3.85,6.79,6.79,0,0,0,.49-1.59,4.84,4.84,0,0,0,0-1.42,4.54,4.54,0,0,0-1.25-2.44Z"/><path class="cls-4" d="M26.71,87.58a12.27,12.27,0,0,0,4.81,4l3.75,1.86a22.69,22.69,0,0,1,4.11,2.72,19.58,19.58,0,0,1,5.7,7.92,18.35,18.35,0,0,1,1.14,4.74,12.79,12.79,0,0,1,0,2.62,8.2,8.2,0,0,1-.31,1.45l-.07.19-.13.33a3.85,3.85,0,0,1-.29.54,4.71,4.71,0,0,1-.58.71c-.35.35-.65.6-.7.64v0l.06-.11a1.79,1.79,0,0,0,.1-.26,1.51,1.51,0,0,0,.07-.5,1.69,1.69,0,0,0-.12-.64,1.51,1.51,0,0,0-.12-.26c0-.07-.13-.19-.09-.12l.18.34a5.33,5.33,0,0,1,.6,1.4c.06.25.14.5.18.75l.05.78a7,7,0,0,1-.13,1.46,11.3,11.3,0,0,1-.39,1.28,15.69,15.69,0,0,1-1.07,2.09c-1.51,2.47-3.11,4.53-3.38,6.91a9.82,9.82,0,0,0,0,1.89,6.82,6.82,0,0,0,.34,1.81,8.1,8.1,0,0,0,2.07,3.18,18.85,18.85,0,0,1,2.83,3.12,7.42,7.42,0,0,1,1.33,4,7.09,7.09,0,0,0-1.78-3.61,18.73,18.73,0,0,0-3.13-2.62,9.67,9.67,0,0,1-2.88-3.37,9.24,9.24,0,0,1-.73-2.19,13.22,13.22,0,0,1-.26-2.24,11.7,11.7,0,0,1,.92-4.52c.54-1.39,1.2-2.66,1.71-3.85a5.52,5.52,0,0,0,.66-3,2.38,2.38,0,0,1-.05-.26c0-.08-.09-.16-.12-.23a1.58,1.58,0,0,0-.3-.46l-.08-.12a1.57,1.57,0,0,1-.15-.23,2.64,2.64,0,0,1-.18-.38,2.56,2.56,0,0,1-.16-.89,2.88,2.88,0,0,1,.11-.75,3.27,3.27,0,0,1,.21-.49c.06-.12.13-.23.19-.33l.16-.23c.39-.5.61-.71.72-.87s.06-.12,0-.12l-.06.08a.36.36,0,0,0,0,.09v-.06a3.57,3.57,0,0,0,0-.59,7.24,7.24,0,0,0-.22-1.51A13.42,13.42,0,0,0,40,106.41a13.24,13.24,0,0,0-4.61-4.82,16,16,0,0,0-3-1.45c-1.17-.41-2.48-.81-3.91-1.32a23.56,23.56,0,0,1-4.47-2.1,19.6,19.6,0,0,1-4.12-3.37Z"/><path class="cls-5" d="M58.09,98.64c2.35,2.12,5.83,3.7,9.58,5s7.81,2.34,12,3.82a36,36,0,0,1,11.94,6.68,14,14,0,0,1,4.17,6.42,13.32,13.32,0,0,1,.36,2,9.14,9.14,0,0,1-.09,2.15,7.86,7.86,0,0,1-1.92,4,8.07,8.07,0,0,1-.8.75,4.39,4.39,0,0,1-.58.42,4.85,4.85,0,0,1-.54.29,13.62,13.62,0,0,1-1.75.63l-1.43.42-.23.08s-.09,0,.06-.07c0,0,.11-.1.15-.16a.75.75,0,0,0,.14-.18,1.87,1.87,0,0,0,.15-.27,1.62,1.62,0,0,0,.12-.43,1.94,1.94,0,0,0,0-.54,2.41,2.41,0,0,0-.13-.45,1.24,1.24,0,0,0-.18-.32,1,1,0,0,0-.16-.2l0,0,0,0,.09.11.19.23a5.39,5.39,0,0,1,.69,1.06,4.07,4.07,0,0,1,.36,1.46,4.16,4.16,0,0,1-.81,2.64,10.36,10.36,0,0,1-2.87,2.46c-1.91,1.19-3.81,2.07-5.67,3a38.42,38.42,0,0,0-5.27,3,9.35,9.35,0,0,0-2,1.91,5.21,5.21,0,0,0-.61,1.15,6.48,6.48,0,0,0-.35,1.32c-.32,1.67,1.16,3.23,2.81,4.35s3.6,2,5.29,3.36A9.51,9.51,0,0,1,83,157a3.48,3.48,0,0,1,.48,3,3.33,3.33,0,0,0-.72-2.88,9.18,9.18,0,0,0-2.3-2c-1.72-1.11-3.71-1.78-5.57-2.87a10.31,10.31,0,0,1-2.64-2A4.74,4.74,0,0,1,71,146.87a8.56,8.56,0,0,1,.3-1.73,6.77,6.77,0,0,1,.71-1.68,11,11,0,0,1,2.28-2.59c3.37-2.86,7.29-4.69,10.43-7a6.9,6.9,0,0,0,1.74-1.72c.14-.25.09-.33.07-.3s0,0,0,0-.09-.11-.21-.21l-.07-.07,0,0-.07-.07a2.61,2.61,0,0,1-.22-.27,1.8,1.8,0,0,1-.23-.41,2.1,2.1,0,0,1-.15-.55,2.28,2.28,0,0,1,.35-1.51,2.42,2.42,0,0,1,.2-.26,3.81,3.81,0,0,1,.3-.29,3.74,3.74,0,0,1,.73-.47l.49-.23,1.53-.61a9.26,9.26,0,0,0,1.15-.53.46.46,0,0,0,.14-.1s0,0,0-.06a3.27,3.27,0,0,0,.3-.35,3.77,3.77,0,0,0,.23-3.69,8.69,8.69,0,0,0-3-3.65,29.93,29.93,0,0,0-10.3-4.52c-3.8-1-8-1.66-12.19-2.7s-8.76-2.43-13-5.52Z"/><path class="cls-6" d="M98,107.51H13.29A10.34,10.34,0,0,1,3,97.17H3a52.69,52.69,0,0,1,52.7-52.7h0a52.7,52.7,0,0,1,52.71,52.7h0A10.34,10.34,0,0,1,98,107.51Z"/><path class="cls-7" d="M0,4.57A2.56,2.56,0,0,1,.78,2.71a2.54,2.54,0,0,1,1.86-.78,2.53,2.53,0,0,1,1.85.78,2.62,2.62,0,0,1,0,3.73,2.57,2.57,0,0,1-3.71,0A2.58,2.58,0,0,1,0,4.57ZM1,9.82h3.4V33.5H1Z"/><path class="cls-8" d="M25.45,18.54H11.7a5.42,5.42,0,0,0,2,3.62,5.84,5.84,0,0,0,3.47,1.14,6,6,0,0,0,4.84-2.4l2.48,1.87a9,9,0,0,1-7.48,3.62,8.09,8.09,0,0,1-6-2.46,8.36,8.36,0,0,1-2.43-6.12,8.23,8.23,0,0,1,2.45-5.93,8.06,8.06,0,0,1,6-2.5,8,8,0,0,1,6,2.54A9,9,0,0,1,25.45,18.54Zm-13.4-2.72h9.84q-1.63-3.32-4.84-3.32A5.14,5.14,0,0,0,12.05,15.82Z"/><path class="cls-9" d="M29.82.59h3.4V25.94h-3.4Z"/><path class="cls-10" d="M38.59.59H42V25.94h-3.4Z"/><path class="cls-11" d="M45.86,9.82h3.85l5.85,8.76,4-8.76h3.51L52.22,33.5H48.67L54,22Z"/><path class="cls-12" d="M76.62.84V4.28a4.8,4.8,0,0,0-2.56-1,1.66,1.66,0,0,0-1.4.66,3,3,0,0,0-.51,1.85v4h4.47v3.11H72.15v13h-3.4v-13h-3V9.82h3V6a6.43,6.43,0,0,1,1.42-4.38A4.74,4.74,0,0,1,74,0,5.61,5.61,0,0,1,76.62.84Z"/><path class="cls-13" d="M79.59,4.53a2.47,2.47,0,0,1,.78-1.82,2.54,2.54,0,0,1,1.86-.78,2.47,2.47,0,0,1,1.82.78,2.46,2.46,0,0,1,.77,1.82,2.47,2.47,0,0,1-.77,1.84,2.49,2.49,0,0,1-1.82.76,2.56,2.56,0,0,1-1.86-.76A2.48,2.48,0,0,1,79.59,4.53Zm1,5.29h3.36V25.94H80.55Z"/><path class="cls-14" d="M98.71,11.74l-2.26,2a12.53,12.53,0,0,0-1.53-1,3.44,3.44,0,0,0-1.52-.32c-1.38,0-2.07.51-2.07,1.52,0,.73.87,1.44,2.63,2.13a10.31,10.31,0,0,1,3.77,2.26,4.18,4.18,0,0,1,1.16,3,4.65,4.65,0,0,1-1.66,3.54,5.62,5.62,0,0,1-3.91,1.52,6.59,6.59,0,0,1-5.61-3.17l2.68-1.29a4.16,4.16,0,0,0,2.93,1.37,3,3,0,0,0,1.85-.58A1.66,1.66,0,0,0,96,21.39c0-.9-.93-1.71-2.78-2.43a10.94,10.94,0,0,1-3.83-2.18,3.76,3.76,0,0,1-1.07-2.72,4.31,4.31,0,0,1,1.51-3.35,5.54,5.54,0,0,1,3.8-1.33C95.12,9.38,96.82,10.16,98.71,11.74Z"/><path class="cls-15" d="M101.56.59H105V12.46a11.47,11.47,0,0,1,2.63-2.35,5.65,5.65,0,0,1,3-.73A4.71,4.71,0,0,1,114.11,11a5.26,5.26,0,0,1,1.5,3.76V25.94h-3.4V15.66a3.7,3.7,0,0,0-.77-2.44,2.56,2.56,0,0,0-2-.92,4.16,4.16,0,0,0-3.13,1.39,4.74,4.74,0,0,0-1.3,3.36v8.89h-3.4Z"/><path class="cls-16" d="M80.92,85.92l-1.5-7.68a3.83,3.83,0,1,0-5.28-4.43H62.64a3.35,3.35,0,1,0,0,1.88H74.14a3.7,3.7,0,0,0,.41,1L62.68,88.34a3.88,3.88,0,0,0-2-.58,3.78,3.78,0,0,0-1.47.29L47.55,72.12,57.94,62a3.93,3.93,0,0,0,2.09.61,4,4,0,1,0-4-4c0,.08,0,.15,0,.23L44.49,62.4a3.87,3.87,0,1,0-3.3,5.89,4,4,0,0,0,1.1-.18l2.78,3.8L29.31,87.34a4.49,4.49,0,1,0,1.88,4.75l25.67.44a3.89,3.89,0,0,0,7.69-.87,4,4,0,0,0-.55-2L75.87,78a3.63,3.63,0,0,0,1.69.54l1.52,7.73a3.62,3.62,0,1,0,1.84-.36Zm-37-18.76a3.89,3.89,0,0,0,1.14-2.75c0-.07,0-.14,0-.21L56.6,60.63l-10.17,10Zm13.74,22a3.75,3.75,0,0,0-.77,1.48l-25.67-.44a4.5,4.5,0,0,0-.61-1.52L46.19,73.45Z"/></g></g></svg>